<?xml version="1.0" encoding="utf-8"?>
<!-- Generator: Adobe Illustrator 19.0.0, SVG Export Plug-In . SVG Version: 6.00 Build 0)  -->
<svg version="1.1" id="Layer_1" xmlns="http://www.w3.org/2000/svg" xmlns:xlink="http://www.w3.org/1999/xlink" x="0px" y="0px"
	 viewBox="0 0 500 120" style="enable-background:new 0 0 500 120;" xml:space="preserve">
<style type="text/css">
	.st0{fill:#ffffff;}
</style>
<g id="XMLID_1_">
	<path id="XMLID_62_" class="st0" d="M55,12.9c0,0.4,0,0.7,0.1,1L22.4,32.8c-0.9-1-2.3-1.6-3.7-1.6c-2.9,0-5.2,2.3-5.2,5.2
		c0,2.6,1.9,4.7,4.3,5.1v37.2c-2.5,0.4-4.3,2.6-4.3,5.1c0,2.9,2.3,5.2,5.2,5.2c1.6,0,3.1-0.8,4.1-1.9L55.1,106
		c-0.1,0.4-0.1,0.7-0.1,1.1c0,2.9,2.3,5.2,5.2,5.2c2.9,0,5.2-2.3,5.2-5.2c0-0.4,0-0.8-0.1-1.1l32.2-18.6c1,1.1,2.4,1.8,4,1.8
		c2.9,0,5.2-2.3,5.2-5.2c0-2.5-1.8-4.6-4.1-5.1V62.4c0.9-0.4,1.5-1.3,1.5-2.4s-0.6-2-1.5-2.4v-16c2.3-0.5,4.1-2.6,4.1-5.1
		c0-2.9-2.3-5.2-5.2-5.2c-1.4,0-2.7,0.6-3.6,1.5L65.3,14c0.1-0.3,0.1-0.7,0.1-1c0-2.9-2.3-5.2-5.2-5.2C57.3,7.7,55,10,55,12.9z
		 M47.2,35.8l10.5-18.2c0.6,0.3,1.3,0.5,2,0.6v17.6H47.2z M60.6,18.1c0.7-0.1,1.4-0.3,2-0.6l9.6,16.7c-0.5,0.4-0.8,0.9-0.9,1.5H60.6
		V18.1z M74,39c0.3,0,0.6-0.1,0.9-0.2l5.3,9.1L60.6,59.2V36.6h10.7C71.5,38,72.6,39,74,39z M73.6,83.3H62.7c-0.1-1.2-1-2.1-2.1-2.3
		V60.7l18.7,10.8c0,0.1,0,0.2,0,0.4c0,0.4,0.2,0.8,0.4,1L73.6,83.3z M79.7,70.7L61,60l19.6-11.3L87.1,60l-6,10.4c-0.1,0-0.2,0-0.3,0
		C80.4,70.3,80,70.5,79.7,70.7z M33.9,61c0.2-0.3,0.4-0.6,0.4-1c0-0.4-0.2-0.8-0.4-1l4.8-8.3c0.3,0.1,0.7,0.2,1.1,0.2
		c0.8,0,1.6-0.4,2.1-1L59.3,60L39.8,71.2L33.9,61z M42.4,48.2c0-0.9-0.4-1.7-1.1-2.1l5.4-9.4h13v22.6L42.2,49.1
		C42.3,48.8,42.4,48.5,42.4,48.2z M23.9,36.6h21.8l-5.2,9c-0.3-0.1-0.5-0.1-0.8-0.1c-0.8,0-1.5,0.4-2,1l-14.1-8.1
		C23.8,37.8,23.9,37.2,23.9,36.6z M23.2,39.1l14,8.1c-0.1,0.3-0.2,0.6-0.2,1c0,0.8,0.3,1.5,0.9,2l-4.8,8.3c-0.1,0-0.3-0.1-0.4-0.1
		c-0.1,0-0.2,0-0.3,0L22,40.5C22.5,40.1,22.9,39.6,23.2,39.1z M20.3,79V41.5c0.4-0.1,0.7-0.3,1-0.5l10.3,17.8
		c-0.3,0.3-0.5,0.7-0.5,1.1s0.2,0.8,0.5,1.1L21.1,79.3C20.9,79.2,20.6,79.1,20.3,79z M21.8,79.8l10.6-18.3c0.1,0,0.2,0,0.3,0
		c0.1,0,0.3,0,0.4-0.1L39,71.7L23,81C22.6,80.5,22.3,80.1,21.8,79.8z M23.9,83.3c-0.1-0.6-0.2-1.1-0.5-1.6l16.1-9.3l6.3,10.9H23.9z
		 M40.2,72l19.6-11.3v20.2c-1.2,0.1-2.2,1.1-2.3,2.3H46.7L40.2,72z M59.8,86.2v15.6c-0.7,0.1-1.4,0.3-2,0.6L47.2,84.1h10.3
		C57.7,85.2,58.6,86.1,59.8,86.2z M23.9,85c0.1-0.3,0.1-0.6,0.1-0.9h22.3l10.8,18.8c-0.3,0.2-0.6,0.5-0.9,0.8L23.9,85z M96.2,84.1
		c0,0.3,0,0.7,0.1,1l-32.2,18.6c-0.3-0.3-0.5-0.6-0.9-0.8l10.8-18.8H96.2z M62.6,102.4c-0.6-0.3-1.3-0.5-2-0.6V86.2
		c1-0.2,1.9-1,2.1-2.1h10.5L62.6,102.4z M96.3,83.3H74.6l5.7-10c0.1,0,0.3,0.1,0.4,0.1c0.4,0,0.8-0.2,1.1-0.4l14.9,8.6
		C96.5,82.1,96.4,82.7,96.3,83.3z M97.3,80.9l-15-8.6c0-0.1,0.1-0.3,0.1-0.4c0-0.4-0.2-0.8-0.5-1.1l5.7-9.9l10.9,18.9
		C98,80,97.6,80.4,97.3,80.9z M100,41.5v16.2c-0.7,0.5-1.2,1.3-1.2,2.2c0,1,0.5,1.8,1.2,2.2V79c-0.3,0.1-0.5,0.2-0.8,0.3L88.1,60
		L99,41.1C99.3,41.3,99.7,41.4,100,41.5z M98.3,40.6L87.6,59.1l-6.3-10.9l15.7-9C97.3,39.8,97.8,40.2,98.3,40.6z M96.6,38.4
		l-15.7,9.1l-5.3-9.1c0.5-0.4,0.9-1,1-1.7h19.6C96.2,37.3,96.4,37.9,96.6,38.4z M96.5,34.9c-0.1,0.3-0.2,0.6-0.2,0.9H76.6
		c-0.2-1.2-1.3-2.1-2.6-2.1c-0.3,0-0.7,0.1-0.9,0.2l-9.7-16.7c0.3-0.2,0.6-0.5,0.9-0.8L96.5,34.9z M57,17.1L46.2,35.8H23.9
		c0-0.3-0.1-0.5-0.2-0.8l32.4-18.7C56.4,16.6,56.7,16.9,57,17.1z"/>
	<g id="XMLID_36_">
		<path id="XMLID_84_" class="st0" d="M179.2,68c-0.6,2.9-1.5,5.5-2.7,7.9c-1.2,2.3-2.8,4.4-4.6,6c-1.9,1.7-4,3-6.5,3.9
			c-2.4,0.9-5.2,1.4-8.1,1.4c-3.3,0-6.4-0.6-9.3-1.7c-2.9-1.1-5.4-2.8-7.5-5c-2.1-2.2-3.7-5-4.9-8.3c-1.2-3.3-1.8-7.1-1.8-11.5
			c0-4.3,0.5-8.1,1.6-11.6c1.1-3.4,2.7-6.3,4.7-8.7c2-2.4,4.5-4.2,7.5-5.5c2.9-1.3,6.2-1.9,9.8-1.9c3.2,0,6,0.5,8.6,1.4
			c2.6,0.9,4.8,2.2,6.7,3.9c1.9,1.7,3.3,3.6,4.4,5.9c1.1,2.2,1.8,4.6,2,7.2h-10.6c-0.7-2.9-2.1-5.2-4.1-6.8c-2-1.6-4.3-2.4-6.9-2.4
			c-4.4,0-7.7,1.6-9.8,4.8c-2.1,3.2-3.1,7.6-3.1,13.1c0,5.7,1,10.1,3.1,13.2s5.2,4.7,9.3,4.7c3.2,0,5.7-0.9,7.6-2.6
			c1.9-1.7,3.2-4.2,3.9-7.4H179.2z"/>
		<path id="XMLID_134_" class="st0" d="M212.8,85.5L209.6,75h-18.7l-3.6,10.5H176l18.1-50.8h12.3l17.9,50.8H212.8z M200.2,46.1
			L200.2,46.1l-6.6,20.2h12.9L200.2,46.1z"/>
		<path id="XMLID_137_" class="st0" d="M226.4,85.5V34.7H246c3.4,0,6.6,0.6,9.5,1.7c2.9,1.1,5.4,2.8,7.5,4.9
			c2.1,2.1,3.7,4.7,4.9,7.8c1.2,3.1,1.8,6.5,1.8,10.4s-0.5,7.4-1.6,10.6s-2.5,5.9-4.5,8.2c-1.9,2.3-4.3,4-7,5.3
			c-2.7,1.2-5.7,1.9-8.9,1.9H226.4z M245.5,76.8c4.6,0,8-1.4,10.1-4.3c2.1-2.9,3.1-7.2,3.1-13c0-2.9-0.3-5.3-0.8-7.3
			c-0.5-2-1.3-3.7-2.5-5c-1.1-1.3-2.6-2.2-4.4-2.8c-1.8-0.6-4-0.9-6.5-0.9h-7.9v33.3H245.5z"/>
		<path id="XMLID_140_" class="st0" d="M336,68c-0.6,2.9-1.5,5.5-2.7,7.9c-1.2,2.3-2.8,4.4-4.6,6c-1.9,1.7-4,3-6.5,3.9
			c-2.4,0.9-5.1,1.4-8.1,1.4c-3.3,0-6.4-0.6-9.3-1.7c-2.9-1.1-5.4-2.8-7.5-5c-2.1-2.2-3.7-5-4.9-8.3s-1.8-7.1-1.8-11.5
			c0-4.3,0.5-8.1,1.6-11.6c1.1-3.4,2.7-6.3,4.7-8.7c2-2.4,4.5-4.2,7.5-5.5c2.9-1.3,6.2-1.9,9.8-1.9c3.2,0,6,0.5,8.6,1.4
			c2.6,0.9,4.8,2.2,6.7,3.9c1.9,1.7,3.3,3.6,4.4,5.9c1.1,2.2,1.8,4.6,2,7.2h-10.6c-0.7-2.9-2.1-5.2-4.1-6.8c-2-1.6-4.3-2.4-6.9-2.4
			c-4.4,0-7.7,1.6-9.8,4.8c-2.1,3.2-3.1,7.6-3.1,13.1c0,5.7,1,10.1,3.1,13.2c2.1,3.1,5.2,4.7,9.3,4.7c3.2,0,5.7-0.9,7.6-2.6
			c1.9-1.7,3.2-4.2,3.9-7.4H336z"/>
		<path id="XMLID_142_" class="st0" d="M368.2,85.5V62.7h-19.8v22.8h-10.6V34.7h10.6v19.1h19.8V34.7h10.7v50.8H368.2z"/>
		<path id="XMLID_144_" class="st0" d="M417.5,85.5L414.3,75h-18.7L392,85.5h-11.2l18.1-50.8h12.3l17.9,50.8H417.5z M404.9,46.1
			L404.9,46.1l-6.6,20.2h12.9L404.9,46.1z"/>
		<path id="XMLID_147_" class="st0" d="M431.1,85.5V34.7h10.6v50.8H431.1z"/>
		<path id="XMLID_149_" class="st0" d="M476.7,85.5L455,51.3v34.1h-9.9V34.7h11.2l20.2,32.7V34.7h9.9v50.8H476.7z"/>
	</g>
</g>
</svg>
